<svg height="512pt" viewBox="-68 0 512 512.00047" width="512pt" xmlns="http://www.w3.org/2000/svg"><path d="m197.824219 504.507812h-19.835938c-7.574219 0-13.714843-6.140624-13.714843-13.714843v-23.277344h47.265624v23.277344c0 7.578125-6.140624 13.714843-13.714843 13.714843zm0 0" fill="#838383"/><path d="m211.535156 467.515625v23.277344c0 7.570312-6.140625 13.714843-13.714844 13.714843h-19.832031c-.191406 0-.390625 0-.582031-.019531 7.304688-.289062 13.136719-6.3125 13.136719-13.695312v-23.277344zm0 0" fill="#5a5a5a"/><path d="m214.171875 467.320312h-52.53125c-15.300781 0-27.703125-12.402343-27.703125-27.703124v-36.351563h107.9375v36.351563c0 15.300781-12.402344 27.703124-27.703125 27.703124zm0 0" fill="#acacac"/><path d="m241.878906 403.265625v36.355469c0 15.300781-12.40625 27.695312-27.707031 27.695312h-23.628906c15.289062 0 27.695312-12.394531 27.695312-27.695312v-36.355469zm0 0" fill="#9c9c9c"/><path d="m368.328125 187.9375c0-117.636719-112.585937-208.980469-235.882813-172.15625-55.796874 16.664062-99.722656 60.414062-116.535156 116.167969-29.675781 98.410156 22.347656 190.082031 104.308594 223.277343 8.339844 3.378907 13.71875 11.578126 13.71875 20.578126v27.386718h107.9375v-27.386718c0-9.011719 5.398438-17.207032 13.75-20.589844 66.085938-26.78125 112.703125-91.582032 112.703125-167.277344zm0 0" fill="#ffd86e"/><path d="m368.328125 187.9375c0 75.6875-46.613281 140.496094-112.699219 167.273438-8.355468 3.382812-13.75 11.578124-13.75 20.589843v27.394531h-23.640625v-42.273437c0-9.011719 5.398438-17.207031 13.75-20.589844 66.09375-26.78125 112.707031-91.585937 112.707031-167.273437 0-59.347656-28.652343-112.007813-72.875-144.898438 57.375 30.210938 96.507813 90.425782 96.507813 159.777344zm0 0" fill="#ffb509"/><path d="m23.082031 134.113281c16.152344-53.574219 57.839844-95.125 111.507813-111.15625 28.792968-8.597656 57.648437-10.25 85.769531-4.914062 4.058594.773437 7.984375-1.898438 8.753906-5.960938.773438-4.0625-1.894531-7.984375-5.960937-8.753906-30.496094-5.792969-61.738282-4.015625-92.851563 5.273437-28.566406 8.535157-54.855469 24.195313-76.03125 45.300782-21.183593 21.109375-36.929687 47.351562-45.53125 75.882812-12.460937 41.324219-11.578125 83.671875 2.554688 122.46875 1.105469 3.042969 3.976562 4.929688 7.039062 4.929688.847657 0 1.714844-.144532 2.5625-.453125 3.886719-1.417969 5.886719-5.714844 4.472657-9.601563-13.015626-35.734375-13.808594-74.816406-2.285157-113.015625zm0 0"/><path d="m346.210938 86.648438c-18.859376-29.410157-45.425782-52.953126-76.832032-68.089844-3.726562-1.796875-8.203125-.230469-10 3.496094-1.796875 3.726562-.230468 8.203124 3.496094 10 28.910156 13.929687 53.363281 35.605468 70.722656 62.679687 17.820313 27.796875 27.242188 60.023437 27.242188 93.203125 0 35.113281-10.460938 68.910156-30.253906 97.742188-19.339844 28.167968-46.230469 49.8125-77.773438 62.59375-11.195312 4.535156-18.429688 15.34375-18.429688 27.53125v19.898437h-38.988281v-114.527344l18.320313 8.816407c1.027344.492187 2.136718.738281 3.25.738281 1.109375 0 2.222656-.246094 3.246094-.738281l29.0625-13.984376c3.730468-1.792968 5.296874-6.269531 3.503906-9.996093-1.796875-3.730469-6.269532-5.296875-10-3.503907l-25.8125 12.421876-25.816406-12.421876c-2.050782-.988281-4.441407-.988281-6.492188 0l-25.8125 12.421876-25.808594-12.421876c-3.730468-1.796874-8.203125-.226562-10 3.503907-1.792968 3.726562-.226562 8.203125 3.503906 9.996093l29.058594 13.980469c2.050782.988281 4.441406.988281 6.496094 0l18.320312-8.816406v114.53125h-38.984374v-19.898437c0-12.191407-7.222657-22.996094-18.402344-27.519532-30.882813-12.511718-57.386719-33.582031-76.640625-60.941406-2.382813-3.382812-7.054688-4.195312-10.4375-1.8125-3.382813 2.378906-4.195313 7.054688-1.816407 10.433594 20.917969 29.71875 49.710938 52.613281 83.269532 66.203125 5.496094 2.226562 9.042968 7.578125 9.042968 13.636719v27.386718c0 .011719.003907.023438.003907.039063 0 .011719-.003907.023437-.003907.035156v36.351563c0 17.757812 13.222657 32.472656 30.335938 34.847656v16.328125c0 11.695312 9.511719 21.207031 21.207031 21.207031h19.835938c11.691406 0 21.207031-9.511719 21.207031-21.207031v-16.328125c17.113281-2.371094 30.335938-17.089844 30.335938-34.847656v-36.351563c0-.011719-.003907-.023437-.003907-.035156 0-.015625.003907-.027344.003907-.039063v-27.386718c0-6.058594 3.558593-11.414063 9.070312-13.648438 34.277344-13.890625 63.496094-37.402344 84.496094-68 21.515625-31.335938 32.886718-68.066406 32.886718-106.222656-.003906-36.046875-10.242187-71.070313-29.609374-101.285156zm-142.164063 404.144531c0 3.433593-2.789063 6.226562-6.222656 6.226562h-19.835938c-3.433593 0-6.226562-2.792969-6.226562-6.226562v-15.785157h32.285156zm30.335937-51.175781c0 11.144531-9.066406 20.210937-20.210937 20.210937h-52.53125c-11.144531 0-20.210937-9.066406-20.210937-20.210937v-28.859376h92.953124zm0 0"/></svg>